HIERARCHY
ROOT Hips
{
	OFFSET 0.000000 0.000000 0.000000
	CHANNELS 6 Xposition Yposition Zposition Zrotation Yrotation Xrotation 
	JOINT LHipJoint
	{
		OFFSET 0.000000 0.000000 0.000000
		CHANNELS 3 Zrotation Yrotation Xrotation
		JOINT LeftUpLeg
		{
			OFFSET 1.363060 -1.794630 0.839290
			CHANNELS 3 Zrotation Yrotation Xrotation
			JOINT LeftLeg
			{
				OFFSET 2.448110 -6.726130 0.000000
				CHANNELS 3 Zrotation Yrotation Xrotation
				JOINT LeftFoot
				{
					OFFSET 2.562200 -7.039590 0.000000
					CHANNELS 3 Zrotation Yrotation Xrotation
					JOINT LeftToeBase
					{
						OFFSET 0.157640 -0.433110 2.322550
						CHANNELS 3 Zrotation Yrotation Xrotation
						End Site
						{
							OFFSET 0.000000 0.000000 0.000000
						}
					}
				}
			}
		}
	}
	JOINT RHipJoint
	{
		OFFSET 0.000000 0.000000 0.000000
		CHANNELS 3 Zrotation Yrotation Xrotation
		JOINT RightUpLeg
		{
			OFFSET -1.305520 -1.794630 0.839290
			CHANNELS 3 Zrotation Yrotation Xrotation
			JOINT RightLeg
			{
				OFFSET -2.542530 -6.985550 0.000000
				CHANNELS 3 Zrotation Yrotation Xrotation
				JOINT RightFoot
				{
					OFFSET -2.568260 -7.056230 0.000000
					CHANNELS 3 Zrotation Yrotation Xrotation
					JOINT RightToeBase
					{
						OFFSET -0.164730 -0.452590 2.363150
						CHANNELS 3 Zrotation Yrotation Xrotation
						End Site
						{
							OFFSET 0.000000 0.000000 0.000000
						}
					}
				}
			}
		}
	}
}
MOTION
Frames: 16
Frame Time: 0.008333
4.280503 17.077466 -1.887089 98.970522 -81.881797 -97.745744 -4.663131 -4.793298 1.730834 -13.743715 -7.435144 -86.637363 -5.688488 -1.549644 -4.765559 -1.409252 -10.366991 22.607790 -4.746700 -0.000000 -63.060500 11.311505 1.727572 -5.308482 3.441250 -1.781159 -5.810364 1.181886 -1.914538 23.635799 -1.838091 -6.804421 -12.783887 0.448800 -0.000000 -47.189100
4.272281 17.076638 -1.884306 99.289252 -81.972130 -98.036192 -4.746195 -4.762026 1.702207 -14.352148 -7.211015 -85.376300 -5.651874 -1.675341 -5.712740 -1.456814 -8.845575 22.704261 -3.807100 0.000001 -62.991900 11.264269 1.660104 -5.199964 3.598783 -1.717061 -5.913404 1.195314 -1.896716 23.594834 -1.839737 -6.809552 -12.776157 0.448600 0.000000 -47.317200
4.263994 17.075394 -1.882026 99.419708 -82.139451 -98.120549 -4.855195 -4.782561 1.671725 -14.603845 -6.917892 -83.512490 -5.527817 -1.852552 -7.369427 -1.457189 -6.890214 23.670061 -2.721400 -0.000000 -62.361400 11.196759 1.583416 -5.080045 3.874516 -1.554836 -6.008137 1.208026 -1.878284 23.541002 -1.869472 -6.956300 -12.779008 0.454501 0.000000 -47.342600
4.256147 17.073798 -1.881048 99.378888 -82.381219 -97.997854 -5.019940 -4.694605 1.708951 -14.288672 -6.823432 -83.120914 -5.317647 -1.637357 -5.778132 -1.225914 -4.665111 23.256928 -1.521200 0.000000 -61.007201 11.140044 1.517730 -4.991377 4.223330 -1.340985 -6.070770 1.223557 -1.860714 23.459730 -1.916207 -7.188508 -12.788559 0.464000 -0.000000 -47.285000
4.248504 17.072158 -1.880437 99.179012 -82.666901 -97.715364 -5.201385 -4.626903 1.772933 -13.342169 -6.803421 -82.831455 -4.984446 -1.335369 -3.514900 -0.905571 -2.182114 22.873094 -0.237500 0.000000 -59.016800 11.077780 1.458034 -4.927582 4.625320 -1.103436 -6.070797 1.240717 -1.843649 23.333499 -1.974550 -7.480201 -12.789090 0.473601 -0.000000 -47.174700
4.241296 17.070796 -1.879814 98.754293 -82.971749 -97.226606 -5.377798 -4.603803 1.849473 -11.827978 -6.872429 -82.337331 -4.539623 -1.028385 -1.165124 -0.536068 0.375950 22.785679 1.055500 -0.000000 -56.623800 11.013565 1.406405 -4.892143 5.041678 -0.892980 -5.998027 1.258999 -1.826329 23.153594 -2.035173 -7.786163 -12.769776 0.479700 0.000000 -47.047000
4.234326 17.070137 -1.880456 97.997880 -83.249860 -96.431560 -5.522275 -4.605211 1.926566 -9.964546 -7.076028 -81.608994 -4.031997 -0.739085 1.179945 -0.160619 2.757836 22.979320 2.259100 -0.000000 -54.159200 10.975445 1.370998 -4.884730 5.386776 -0.789031 -5.879471 1.275201 -1.808726 22.946731 -2.082332 -8.026825 -12.740486 0.481700 -0.000000 -46.931500
4.227411 17.070707 -1.881896 96.894677 -83.497745 -95.313928 -5.632706 -4.615066 1.994244 -7.971744 -7.428864 -80.690136 -3.509921 -0.473232 3.497154 0.174154 4.715936 23.403976 3.260901 0.000000 -52.047700 10.963241 1.348059 -4.896472 5.656928 -0.798745 -5.726534 1.289022 -1.788238 22.702089 -2.113433 -8.192942 -12.688429 0.477500 -0.000001 -46.853801
4.220221 17.072974 -1.884373 95.465380 -83.705510 -93.888591 -5.708996 -4.615118 2.045141 -6.053177 -7.922676 -79.630325 -3.016690 -0.231270 5.770113 0.435799 6.101263 23.991985 3.981100 0.000000 -50.593000 10.982365 1.336328 -4.917487 5.838385 -0.925583 -5.558677 1.299143 -1.763076 22.421516 -2.125871 -8.273216 -12.610221 0.466400 0.000000 -46.829100
4.212384 17.077187 -1.888045 93.813921 -83.867973 -92.253973 -5.758272 -4.592112 2.071391 -4.388082 -8.513055 -78.499313 -2.583589 -0.005368 8.028731 0.606573 6.823812 24.652079 4.354400 0.000000 -49.897800 11.032109 1.332498 -4.935626 5.933094 -1.150464 -5.392593 1.304816 -1.732036 22.108963 -2.120481 -8.272128 -12.505449 0.448701 0.000000 -46.855800
4.203481 17.083528 -1.892700 92.077418 -83.987304 -90.534925 -5.791269 -4.543701 2.075320 -3.034912 -9.157080 -77.333570 -2.216319 0.206778 10.263387 0.695985 6.949464 25.338031 4.399400 -0.000001 -50.030400 11.105398 1.332983 -4.941717 5.956550 -1.437963 -5.238904 1.305857 -1.694501 21.763034 -2.101245 -8.209579 -12.370656 0.424800 0.000000 -46.940000
4.193129 17.091824 -1.898006 90.442344 -84.068198 -88.915938 -5.819910 -4.472671 2.051635 -2.059586 -9.783363 -76.176836 -1.914605 0.413272 12.524280 0.717107 6.542327 25.992023 4.136400 0.000001 -50.854800 11.192408 1.332101 -4.925505 5.929853 -1.744442 -5.101547 1.302901 -1.651127 21.388208 -2.073299 -8.109350 -12.209729 0.396000 0.000000 -47.066300
4.182800 17.098673 -1.904092 83.005141 -84.279879 -81.761778 -5.763289 -4.264281 2.066080 -1.242616 -11.129352 -74.711380 -1.616048 0.583830 14.684094 0.720795 5.996147 26.802037 3.796900 -0.000001 -52.030000 11.390967 1.396899 -5.192145 5.840457 -3.221483 -4.507271 1.312485 -1.563201 20.675340 -1.961681 -7.655932 -11.867804 0.337801 -0.000000 -47.558000
4.168364 17.109914 -1.909201 82.070853 -84.295670 -80.827225 -5.813345 -4.170947 1.992732 -0.974151 -11.567615 -73.608073 -1.404256 0.781282 17.037038 0.682553 4.992341 27.383154 3.167900 0.000000 -53.764400 11.472125 1.381453 -5.115304 5.777321 -3.442393 -4.401517 1.304045 -1.511698 20.260453 -1.931542 -7.550253 -11.667833 0.304400 -0.000000 -47.734400
4.151677 17.121910 -1.913452 81.627153 -84.308388 -80.381413 -5.880631 -4.083991 1.890524 -0.991198 -11.854597 -72.503239 -1.213877 0.969880 19.438260 0.650995 3.959790 27.951039 2.512300 -0.000000 -55.602600 11.541181 1.350635 -5.004407 5.727045 -3.570461 -4.297562 1.295238 -1.460532 19.832020 -1.907369 -7.474354 -11.460871 0.270500 0.000000 -47.910400
4.132638 17.134204 -1.916471 81.702521 -84.323496 -80.450714 -5.965223 -4.008078 1.766774 -1.212405 -11.993013 -71.377635 -1.031702 1.142224 21.851690 0.647349 3.087274 28.527384 1.942400 -0.000001 -57.255001 11.595116 1.304238 -4.861664 5.696849 -3.591813 -4.196077 1.286766 -1.411618 19.401583 -1.891096 -7.435781 -11.256394 0.237200 0.000000 -48.068400
